<svg width="26" height="20" viewBox="0 0 26 20" fill="none" xmlns="http://www.w3.org/2000/svg">
<g clip-path="url(#clip0_27_209)">
<path d="M18.2132 9.97783C18.2132 12.6764 18.2132 15.3675 18.2132 18.0661C18.2132 18.8969 17.8088 19.5146 17.0808 19.8161C16.3602 20.1102 15.6544 19.9631 15.0808 19.3602C14.6396 18.8969 14.2205 18.4117 13.7867 17.9337C11.7794 15.7278 9.30877 14.4411 6.33082 14.1543C5.897 14.1102 5.897 14.1102 5.897 13.6764C5.897 11.1543 5.897 8.63224 5.88965 6.11018C5.88965 5.91901 5.91906 5.85283 6.1323 5.83812C8.59553 5.62489 10.772 4.73518 12.6691 3.1396C13.3749 2.54401 13.9485 1.83077 14.5735 1.16165C14.7867 0.933713 14.9926 0.705771 15.2205 0.485183C15.772 -0.0442287 16.4191 -0.117758 17.1029 0.169007C17.8014 0.470477 18.2132 0.999889 18.2132 1.78665C18.2205 3.81607 18.2132 5.83812 18.2132 7.86754C18.2132 8.56607 18.2132 9.27195 18.2132 9.97783Z" fill="white"/>
<path d="M4.72058 9.98549C4.72058 11.2723 4.71322 12.5517 4.72793 13.8384C4.72793 14.0443 4.67646 14.1031 4.47058 14.0958C3.77205 14.0664 3.07352 14.1693 2.38234 14.0223C1.06617 13.7576 0.132342 12.6693 0.0441063 11.3237C-0.0147172 10.4561 -0.00736428 9.58108 0.0294004 8.71344C0.110283 7.04432 1.35293 5.88255 3.02205 5.86049C3.50734 5.85314 3.99264 5.86785 4.47793 5.85314C4.67646 5.84579 4.72058 5.90461 4.72058 6.09579C4.72058 7.40461 4.72058 8.69873 4.72058 9.98549Z" fill="white"/>
<path d="M1.77942 16.7278C1.77942 16.2425 1.77942 15.7572 1.77942 15.2719C1.77942 15.1836 1.75001 15.0807 1.91913 15.1248C2.58825 15.3233 3.27942 15.2572 3.9706 15.2645C4.3456 15.2719 4.7206 15.2719 5.0956 15.2645C5.26472 15.2572 5.30884 15.3013 5.30884 15.4778C5.30148 16.3675 5.30884 17.2572 5.30148 18.1469C5.28678 19.2204 4.58825 19.941 3.57354 19.9483C2.54413 19.9557 1.81619 19.2351 1.78678 18.1616C1.77207 17.6763 1.77942 17.1983 1.77942 16.7278Z" fill="white"/>
<path d="M23.5 9.3895C24.0662 9.3895 24.6323 9.38215 25.2059 9.3895C25.6544 9.39685 25.897 9.68362 25.8235 10.1027C25.772 10.3821 25.5809 10.566 25.2647 10.566C24.0956 10.5733 22.9191 10.5807 21.75 10.566C21.3823 10.5586 21.1691 10.316 21.1765 9.97038C21.1838 9.62479 21.397 9.4042 21.7794 9.39685C22.3456 9.38215 22.9191 9.3895 23.5 9.3895Z" fill="white"/>
<path d="M21.1471 14.103C21.3236 14.0956 21.4633 14.1765 21.5883 14.2942C22.1618 14.8604 22.728 15.4265 23.2942 16.0074C23.5662 16.2868 23.5662 16.603 23.3089 16.853C23.0662 17.0956 22.7427 17.0956 22.478 16.8383C21.8898 16.2648 21.3089 15.6765 20.728 15.0883C20.5442 14.8971 20.5074 14.6692 20.6177 14.4339C20.728 14.2133 20.9045 14.103 21.1471 14.103Z" fill="white"/>
<path d="M21.1839 5.8678C20.8897 5.8678 20.7206 5.7428 20.625 5.52221C20.5295 5.29427 20.5515 5.07368 20.7353 4.88986C21.2206 4.40457 21.7059 3.91927 22.1912 3.43398C22.3015 3.32368 22.4045 3.20604 22.5221 3.11045C22.7721 2.88986 23.0883 2.89721 23.3162 3.11045C23.5442 3.32368 23.5883 3.66927 23.3603 3.89721C22.7574 4.52221 22.1397 5.13251 21.5147 5.7428C21.4118 5.83839 21.2795 5.87516 21.1839 5.8678Z" fill="white"/>
</g>
<defs>
<clipPath id="clip0_27_209">
<rect width="26" height="20" fill="white"/>
</clipPath>
</defs>
</svg>
